<?xml version="1.0" encoding="utf-8"?>
<!-- Generator: Adobe Illustrator 26.3.1, SVG Export Plug-In . SVG Version: 6.00 Build 0)  -->
<svg version="1.1" id="Layer_1" xmlns="http://www.w3.org/2000/svg" xmlns:xlink="http://www.w3.org/1999/xlink" x="0px" y="0px"
	 viewBox="0 0 1080 1080" style="enable-background:new 0 0 1080 1080;" xml:space="preserve">
<style type="text/css">
	.st0{fill:#26AAE1;}
	.st1{fill:#2C3690;}
	.st2{fill:#5A595C;}
</style>
<path class="st0" d="M243.27,347.66c-45.51,0-90.39,0.02-135.27-0.01c-14.69-0.01-26.91-5.28-35.26-17.72
	c-8.75-13.05-9.19-27.02-2.12-40.72c6.95-13.46,18.14-20.72,33.9-20.7c78.03,0.05,156.06,0.02,234.09-0.3
	c17.2-0.07,29.16,7.74,36.1,22.67c7.13,15.32,5.22,30.39-6.35,43.02c-27.1,29.59-53.88,59.55-82.13,88.02
	c-41.48,41.82-80.25,86.15-121.24,128.39c-11.88,12.24-23.93,24.31-35.65,36.71c-16.03,16.95-40.45,17.89-56.52,2.67
	c-16.67-15.79-17.28-39.92-1.25-57.22c27.27-29.44,53.86-59.58,82.2-87.96c29.13-29.17,56.3-60.13,84.96-89.7
	C240.41,353.06,242.56,351.55,243.27,347.66z"/>
<path class="st1" d="M152.47,600.42c2.43-6.19,7.71-7.75,10.99-11.37c19.03-20.94,38.51-41.47,57.52-62.44
	c3.97-4.38,7.97-6.16,13.78-5.89c14.96,0.7,30.25-1.97,44.17,6.6c12.04,7.42,18.03,18.14,18.46,31.84
	c0.45,14.42-5.21,26.5-17.59,34.16c-8.6,5.32-18.41,7.34-28.84,7.22C218.49,600.19,186.01,600.42,152.47,600.42z"/>
<g>
	<g>
		<path class="st2" d="M485.7,487c-6.48,0-11.8-1.43-15.96-4.3c-4.16-2.87-6.99-6.62-8.47-11.24c-1.48-4.62-1.53-9.76-0.14-15.41
			c1.39-5.64,4.49-11.33,9.3-17.07l95.78-120.49v14.71h-84.4c-7.04,0-12.45-1.8-16.24-5.41c-3.8-3.61-5.69-8.84-5.69-15.69
			c0-6.85,1.9-12.03,5.69-15.55c3.79-3.51,9.2-5.27,16.24-5.27h108.27c6.48,0,11.8,1.44,15.96,4.3c4.16,2.87,6.98,6.62,8.47,11.24
			c1.48,4.63,1.48,9.76,0,15.41c-1.48,5.65-4.54,11.34-9.16,17.07l-95.78,120.49v-14.71h88.84c7.03,0,12.4,1.8,16.1,5.41
			c3.7,3.61,5.55,8.84,5.55,15.69c0,6.66-1.85,11.8-5.55,15.41c-3.71,3.61-9.07,5.41-16.1,5.41H485.7z"/>
		<path class="st2" d="M667.83,487c-8.7,0-15.32-2.26-19.85-6.8c-4.54-4.53-6.8-11.15-6.8-19.85V317.93c0-8.7,2.26-15.31,6.8-19.85
			c4.53-4.53,11.15-6.8,19.85-6.8h94.39c6.29,0,11.15,1.67,14.58,5c3.42,3.33,5.14,8.15,5.14,14.44c0,6.48-1.71,11.43-5.14,14.85
			c-3.43,3.43-8.29,5.14-14.58,5.14h-72.46v37.2h66.07c6.48,0,11.38,1.67,14.71,5c3.33,3.33,5,8.24,5,14.71
			c0,6.29-1.67,11.15-5,14.58c-3.33,3.43-8.24,5.14-14.71,5.14h-66.07v40.26h72.46c6.29,0,11.15,1.71,14.58,5.14
			c3.42,3.43,5.14,8.29,5.14,14.58c0,6.48-1.71,11.38-5.14,14.71c-3.43,3.33-8.29,5-14.58,5H667.83z"/>
		<path class="st2" d="M835.51,489.78c-7.77,0-13.7-2.13-17.77-6.39c-4.07-4.26-6.11-10.27-6.11-18.05V313.76
			c0-7.96,2.04-14.16,6.11-18.6c4.07-4.44,9.53-6.66,16.38-6.66c5.73,0,10.27,1.16,13.6,3.47c3.33,2.32,7.03,6.06,11.1,11.24
			l88.01,109.94h-7.77v-100.5c0-7.59,1.99-13.51,5.97-17.77c3.98-4.26,9.86-6.39,17.63-6.39s13.69,2.13,17.77,6.39
			c4.07,4.26,6.11,10.18,6.11,17.77v153.8c0,6.85-1.9,12.45-5.69,16.8c-3.8,4.35-8.84,6.52-15.13,6.52
			c-6.29,0-11.24-1.16-14.85-3.47c-3.61-2.31-7.54-6.06-11.8-11.24l-87.73-110.22h7.77v100.5c0,7.77-1.99,13.79-5.97,18.05
			C849.16,487.65,843.28,489.78,835.51,489.78z"/>
	</g>
</g>
<g>
	<g>
		<path class="st2" d="M480.6,595.86c-6.31,0-11.71-1.28-16.21-3.83c-4.5-2.55-7.96-6.16-10.36-10.84
			c-2.41-4.67-3.61-10.19-3.61-16.56c0-4.76,0.69-9.04,2.06-12.86c1.38-3.81,3.35-7.08,5.93-9.8c2.58-2.72,5.75-4.82,9.5-6.28
			c3.75-1.46,7.98-2.19,12.69-2.19c3.15,0,6.25,0.4,9.29,1.2c3.04,0.8,5.7,1.95,8,3.44c1.2,0.75,2.01,1.65,2.41,2.71
			c0.4,1.06,0.49,2.09,0.26,3.1c-0.23,1-0.7,1.85-1.42,2.54c-0.72,0.69-1.61,1.07-2.67,1.16c-1.06,0.09-2.22-0.27-3.48-1.08
			c-1.78-1.15-3.7-1.98-5.76-2.49s-4.16-0.77-6.28-0.77c-4.07,0-7.51,0.83-10.32,2.49c-2.81,1.66-4.93,4.07-6.36,7.22
			c-1.43,3.15-2.15,7.02-2.15,11.61c0,4.53,0.72,8.4,2.15,11.61c1.43,3.21,3.55,5.65,6.36,7.31c2.81,1.66,6.25,2.49,10.32,2.49
			c2.18,0,4.33-0.27,6.45-0.82c2.12-0.54,4.13-1.39,6.02-2.54c1.26-0.74,2.39-1.08,3.4-0.99c1,0.09,1.85,0.45,2.54,1.08
			c0.69,0.63,1.15,1.42,1.38,2.37c0.23,0.95,0.17,1.92-0.17,2.92c-0.34,1-1.03,1.88-2.06,2.62c-2.29,1.66-5.03,2.94-8.21,3.83
			C487.1,595.42,483.87,595.86,480.6,595.86z"/>
		<path class="st2" d="M511.48,595.69c-1.38,0-2.48-0.32-3.31-0.95c-0.83-0.63-1.33-1.48-1.5-2.54c-0.17-1.06,0.03-2.25,0.6-3.57
			l22.7-50.31c0.74-1.66,1.65-2.85,2.71-3.57c1.06-0.72,2.28-1.07,3.65-1.07c1.32,0,2.51,0.36,3.57,1.07
			c1.06,0.72,1.96,1.91,2.71,3.57l22.79,50.31c0.63,1.32,0.86,2.52,0.69,3.61c-0.17,1.09-0.66,1.93-1.46,2.54
			c-0.8,0.6-1.87,0.9-3.18,0.9c-1.61,0-2.85-0.39-3.74-1.16c-0.89-0.77-1.68-1.96-2.37-3.57l-5.59-12.99l4.64,3.01H518.1l4.64-3.01
			l-5.5,12.99c-0.75,1.66-1.52,2.87-2.32,3.61C514.11,595.32,512.97,595.69,511.48,595.69z M536.16,546.33l-12.04,28.64l-2.24-2.75
			h28.72l-2.15,2.75l-12.13-28.64H536.16z"/>
		<path class="st2" d="M580.36,595.69c-1.78,0-3.14-0.5-4.08-1.51c-0.95-1-1.42-2.39-1.42-4.17v-50.05c0-1.83,0.49-3.23,1.46-4.17
			c0.97-0.95,2.35-1.42,4.13-1.42h20.73c6.65,0,11.78,1.59,15.39,4.77s5.42,7.64,5.42,13.37c0,3.73-0.82,6.94-2.45,9.63
			s-4,4.76-7.09,6.19c-3.1,1.43-6.85,2.15-11.27,2.15l0.77-1.29h2.84c2.35,0,4.4,0.57,6.15,1.72c1.75,1.15,3.28,2.95,4.6,5.42
			l6.45,11.95c0.69,1.2,1,2.38,0.95,3.53c-0.06,1.15-0.49,2.08-1.29,2.79c-0.8,0.72-1.98,1.08-3.53,1.08s-2.81-0.33-3.78-0.99
			c-0.98-0.66-1.83-1.68-2.58-3.05l-8.69-16c-1.03-1.95-2.25-3.25-3.66-3.91c-1.41-0.66-3.2-0.99-5.38-0.99h-8.17v19.26
			c0,1.78-0.46,3.17-1.38,4.17C583.57,595.19,582.2,595.69,580.36,595.69z M585.87,562.58h13.42c3.96,0,6.95-0.82,8.99-2.45
			c2.03-1.63,3.05-4.08,3.05-7.35c0-3.21-1.02-5.63-3.05-7.27c-2.04-1.63-5.03-2.45-8.99-2.45h-13.42V562.58z"/>
		<path class="st2" d="M639.7,595c-1.89,0-3.34-0.5-4.34-1.5c-1-1-1.5-2.45-1.5-4.34v-48.93c0-1.89,0.5-3.34,1.5-4.34
			c1-1,2.45-1.5,4.34-1.5h30.7c1.43,0,2.54,0.37,3.31,1.12c0.77,0.75,1.16,1.81,1.16,3.18c0,1.43-0.39,2.54-1.16,3.31
			c-0.77,0.77-1.88,1.16-3.31,1.16h-25.97v16.68h24.08c1.49,0,2.61,0.37,3.35,1.12c0.75,0.75,1.12,1.84,1.12,3.27
			c0,1.43-0.37,2.52-1.12,3.27s-1.86,1.12-3.35,1.12h-24.08v17.63h25.97c1.43,0,2.54,0.37,3.31,1.12c0.77,0.75,1.16,1.84,1.16,3.27
			c0,1.43-0.39,2.52-1.16,3.27c-0.77,0.75-1.88,1.12-3.31,1.12H639.7z"/>
		<path class="st2" d="M691.04,595c-1.89,0-3.34-0.5-4.34-1.5c-1-1-1.5-2.45-1.5-4.34v-48.93c0-1.89,0.5-3.34,1.5-4.34
			c1-1,2.45-1.5,4.34-1.5h30.7c1.43,0,2.54,0.37,3.31,1.12c0.77,0.75,1.16,1.81,1.16,3.18c0,1.43-0.39,2.54-1.16,3.31
			c-0.77,0.77-1.88,1.16-3.31,1.16h-25.97v16.68h24.08c1.49,0,2.61,0.37,3.35,1.12c0.75,0.75,1.12,1.84,1.12,3.27
			c0,1.43-0.37,2.52-1.12,3.27s-1.86,1.12-3.35,1.12h-24.08v17.63h25.97c1.43,0,2.54,0.37,3.31,1.12c0.77,0.75,1.16,1.84,1.16,3.27
			c0,1.43-0.39,2.52-1.16,3.27c-0.77,0.75-1.88,1.12-3.31,1.12H691.04z"/>
		<path class="st2" d="M742.04,595.69c-1.78,0-3.14-0.5-4.08-1.51c-0.95-1-1.42-2.39-1.42-4.17v-50.05c0-1.83,0.49-3.23,1.46-4.17
			c0.97-0.95,2.35-1.42,4.13-1.42h20.73c6.65,0,11.78,1.59,15.39,4.77s5.42,7.64,5.42,13.37c0,3.73-0.82,6.94-2.45,9.63
			s-4,4.76-7.09,6.19c-3.1,1.43-6.85,2.15-11.27,2.15l0.77-1.29h2.84c2.35,0,4.4,0.57,6.15,1.72c1.75,1.15,3.28,2.95,4.6,5.42
			l6.45,11.95c0.69,1.2,1,2.38,0.95,3.53c-0.06,1.15-0.49,2.08-1.29,2.79c-0.8,0.72-1.98,1.08-3.53,1.08s-2.81-0.33-3.78-0.99
			c-0.98-0.66-1.83-1.68-2.58-3.05l-8.69-16c-1.03-1.95-2.25-3.25-3.66-3.91c-1.41-0.66-3.2-0.99-5.38-0.99h-8.17v19.26
			c0,1.78-0.46,3.17-1.38,4.17C745.25,595.19,743.87,595.69,742.04,595.69z M747.54,562.58h13.42c3.96,0,6.95-0.82,8.99-2.45
			c2.03-1.63,3.05-4.08,3.05-7.35c0-3.21-1.02-5.63-3.05-7.27c-2.04-1.63-5.03-2.45-8.99-2.45h-13.42V562.58z"/>
		<path class="st2" d="M824.34,595.69c-1.78,0-3.14-0.5-4.08-1.51c-0.95-1-1.42-2.39-1.42-4.17v-50.65c0-1.83,0.47-3.24,1.42-4.21
			c0.95-0.97,2.31-1.46,4.08-1.46c1.78,0,3.14,0.49,4.08,1.46c0.95,0.98,1.42,2.38,1.42,4.21v20.3h31.22v-20.3
			c0-1.83,0.47-3.24,1.42-4.21c0.95-0.97,2.31-1.46,4.08-1.46s3.14,0.49,4.08,1.46c0.95,0.98,1.42,2.38,1.42,4.21v50.65
			c0,1.78-0.47,3.17-1.42,4.17c-0.95,1-2.31,1.51-4.08,1.51s-3.14-0.5-4.08-1.51c-0.95-1-1.42-2.39-1.42-4.17v-21.16h-31.22v21.16
			c0,1.78-0.46,3.17-1.38,4.17C827.55,595.19,826.17,595.69,824.34,595.69z"/>
		<path class="st2" d="M910.51,595.86c-4.19,0-7.87-0.55-11.05-1.63c-3.18-1.09-5.86-2.71-8.04-4.86c-2.18-2.15-3.81-4.83-4.9-8.04
			c-1.09-3.21-1.63-6.94-1.63-11.18v-30.87c0-1.89,0.47-3.3,1.42-4.21c0.95-0.92,2.31-1.38,4.08-1.38c1.78,0,3.14,0.46,4.08,1.38
			c0.95,0.92,1.42,2.32,1.42,4.21v30.79c0,5.45,1.25,9.53,3.74,12.26c2.49,2.72,6.12,4.08,10.88,4.08c4.76,0,8.37-1.36,10.84-4.08
			c2.46-2.72,3.7-6.81,3.7-12.26v-30.79c0-1.89,0.47-3.3,1.42-4.21c0.95-0.92,2.31-1.38,4.08-1.38c1.72,0,3.05,0.46,4,1.38
			c0.95,0.92,1.42,2.32,1.42,4.21v30.87c0,5.62-0.96,10.35-2.88,14.19c-1.92,3.84-4.77,6.72-8.56,8.64
			C920.74,594.9,916.07,595.86,910.51,595.86z"/>
		<path class="st2" d="M954.63,595c-1.89,0-3.34-0.5-4.34-1.5c-1-1-1.5-2.45-1.5-4.34v-48.93c0-1.89,0.5-3.34,1.5-4.34
			c1-1,2.45-1.5,4.34-1.5h20.64c4.24,0,7.85,0.63,10.84,1.89c2.98,1.26,5.26,3.07,6.84,5.42c1.58,2.35,2.37,5.16,2.37,8.43
			c0,3.67-1.06,6.77-3.18,9.29c-2.12,2.52-5.02,4.21-8.69,5.07v-1.29c4.24,0.63,7.54,2.24,9.89,4.82c2.35,2.58,3.53,5.93,3.53,10.06
			c0,5.39-1.82,9.56-5.46,12.51c-3.64,2.95-8.7,4.43-15.18,4.43H954.63z M959.36,560.09h14.02c3.78,0,6.61-0.73,8.47-2.19
			c1.86-1.46,2.79-3.62,2.79-6.49s-0.93-5.03-2.79-6.49c-1.86-1.46-4.69-2.19-8.47-2.19h-14.02V560.09z M959.36,586.66h15.48
			c3.9,0,6.76-0.76,8.6-2.28c1.83-1.52,2.75-3.8,2.75-6.84c0-3.1-0.92-5.39-2.75-6.88c-1.84-1.49-4.7-2.24-8.6-2.24h-15.48V586.66z"
			/>
	</g>
</g>
<g>
	<g>
		<path class="st2" d="M60.75,703.86c-1.74,0-3.07-0.49-3.99-1.47c-0.92-0.98-1.39-2.34-1.39-4.07v-49.48
			c0-1.79,0.46-3.16,1.39-4.12c0.92-0.95,2.25-1.43,3.99-1.43c1.73,0,3.07,0.48,3.99,1.43c0.92,0.95,1.39,2.32,1.39,4.12v19.82
			h30.49v-19.82c0-1.79,0.46-3.16,1.39-4.12c0.92-0.95,2.25-1.43,3.99-1.43c1.74,0,3.07,0.48,3.99,1.43
			c0.92,0.95,1.39,2.32,1.39,4.12v49.48c0,1.74-0.46,3.09-1.39,4.07c-0.92,0.98-2.25,1.47-3.99,1.47c-1.74,0-3.07-0.49-3.99-1.47
			c-0.92-0.98-1.39-2.34-1.39-4.07v-20.66H66.13v20.66c0,1.74-0.45,3.09-1.34,4.07C63.88,703.36,62.54,703.86,60.75,703.86z"/>
		<path class="st2" d="M125.68,703.86c-1.74,0-3.07-0.49-3.99-1.47c-0.92-0.98-1.39-2.34-1.39-4.07v-48.89
			c0-1.79,0.48-3.15,1.43-4.07c0.95-0.92,2.3-1.39,4.03-1.39h20.24c6.5,0,11.51,1.55,15.04,4.66c3.53,3.11,5.29,7.46,5.29,13.06
			c0,3.64-0.8,6.78-2.39,9.41c-1.6,2.63-3.91,4.65-6.93,6.05c-3.02,1.4-6.69,2.1-11,2.1l0.76-1.26h2.77c2.3,0,4.3,0.56,6.01,1.68
			c1.71,1.12,3.21,2.88,4.49,5.29l6.3,11.68c0.67,1.18,0.98,2.32,0.92,3.44c-0.06,1.12-0.48,2.03-1.26,2.73
			c-0.79,0.7-1.93,1.05-3.44,1.05c-1.51,0-2.74-0.32-3.7-0.97c-0.95-0.64-1.79-1.64-2.52-2.98l-8.48-15.62
			c-1.01-1.9-2.2-3.18-3.57-3.82c-1.37-0.64-3.12-0.97-5.25-0.97h-7.98v18.82c0,1.74-0.45,3.09-1.34,4.07
			C128.82,703.36,127.47,703.86,125.68,703.86z M131.06,671.52h13.1c3.86,0,6.79-0.8,8.78-2.39c1.99-1.6,2.98-3.99,2.98-7.18
			c0-3.14-0.99-5.5-2.98-7.1c-1.99-1.6-4.91-2.39-8.78-2.39h-13.1V671.52z"/>
		<path class="st2" d="M228.24,704.02c-6.16,0-11.44-1.25-15.83-3.74c-4.4-2.49-7.77-6.02-10.12-10.58
			c-2.35-4.56-3.53-9.95-3.53-16.17c0-4.65,0.67-8.83,2.02-12.56c1.34-3.72,3.28-6.92,5.8-9.58c2.52-2.66,5.61-4.7,9.28-6.13
			c3.67-1.43,7.8-2.14,12.39-2.14c3.08,0,6.1,0.39,9.07,1.18c2.97,0.78,5.57,1.9,7.81,3.36c1.18,0.73,1.96,1.61,2.35,2.65
			c0.39,1.04,0.48,2.04,0.25,3.02c-0.22,0.98-0.69,1.81-1.39,2.48c-0.7,0.67-1.57,1.05-2.6,1.13c-1.04,0.08-2.17-0.26-3.4-1.05
			c-1.74-1.12-3.61-1.93-5.63-2.44c-2.02-0.5-4.06-0.76-6.13-0.76c-3.98,0-7.34,0.81-10.08,2.44c-2.74,1.62-4.82,3.98-6.22,7.06
			c-1.4,3.08-2.1,6.86-2.1,11.34c0,4.42,0.7,8.21,2.1,11.34c1.4,3.14,3.47,5.52,6.22,7.14c2.74,1.62,6.1,2.44,10.08,2.44
			c2.13,0,4.23-0.26,6.3-0.8c2.07-0.53,4.03-1.36,5.88-2.48c1.23-0.73,2.34-1.05,3.32-0.97c0.98,0.08,1.81,0.43,2.48,1.05
			s1.12,1.39,1.34,2.31c0.22,0.92,0.17,1.88-0.17,2.86c-0.34,0.98-1.01,1.83-2.02,2.56c-2.24,1.62-4.91,2.87-8.02,3.74
			C234.59,703.59,231.44,704.02,228.24,704.02z"/>
		<path class="st2" d="M284.36,704.02c-5.71,0-10.71-1.26-14.99-3.78c-4.28-2.52-7.6-6.06-9.95-10.63
			c-2.35-4.56-3.53-9.92-3.53-16.09c0-4.65,0.67-8.83,2.02-12.56c1.34-3.72,3.26-6.92,5.75-9.58c2.49-2.66,5.49-4.7,8.99-6.13
			c3.5-1.43,7.41-2.14,11.72-2.14c5.77,0,10.78,1.25,15.04,3.74c4.26,2.49,7.56,6.01,9.91,10.54s3.53,9.88,3.53,16.04
			c0,4.65-0.67,8.85-2.02,12.6c-1.34,3.75-3.26,6.97-5.75,9.66c-2.49,2.69-5.49,4.75-8.99,6.17
			C292.57,703.31,288.67,704.02,284.36,704.02z M284.36,694.78c3.64,0,6.73-0.84,9.28-2.52c2.55-1.68,4.51-4.12,5.88-7.31
			c1.37-3.19,2.06-7,2.06-11.42c0-6.72-1.5-11.93-4.49-15.62c-3-3.7-7.24-5.54-12.73-5.54c-3.58,0-6.67,0.83-9.24,2.48
			c-2.58,1.65-4.55,4.06-5.92,7.22c-1.37,3.17-2.06,6.99-2.06,11.47c0,6.67,1.51,11.87,4.54,15.62
			C274.7,692.91,278.92,694.78,284.36,694.78z"/>
		<path class="st2" d="M328.79,703.86c-1.62,0-2.87-0.45-3.74-1.34c-0.87-0.9-1.3-2.18-1.3-3.86v-49.98c0-1.74,0.43-3.07,1.3-3.99
			c0.87-0.92,2-1.39,3.4-1.39c1.29,0,2.25,0.24,2.9,0.71c0.64,0.48,1.41,1.27,2.31,2.39l32.17,41.75h-2.18v-39.73
			c0-1.62,0.43-2.88,1.3-3.78c0.87-0.9,2.11-1.34,3.74-1.34c1.62,0,2.86,0.45,3.7,1.34c0.84,0.9,1.26,2.16,1.26,3.78v50.4
			c0,1.57-0.39,2.8-1.18,3.7c-0.78,0.89-1.85,1.34-3.19,1.34c-1.29,0-2.31-0.25-3.07-0.76c-0.76-0.5-1.58-1.32-2.48-2.44
			l-32.09-41.75h2.1v39.73c0,1.68-0.42,2.97-1.26,3.86C331.65,703.41,330.41,703.86,328.79,703.86z"/>
		<path class="st2" d="M406.99,704.02c-2.46,0-4.93-0.18-7.39-0.55c-2.46-0.36-4.79-0.92-6.97-1.68c-2.18-0.76-4.14-1.69-5.88-2.81
			c-1.01-0.67-1.71-1.48-2.1-2.44c-0.39-0.95-0.52-1.89-0.38-2.81c0.14-0.92,0.5-1.74,1.09-2.44s1.33-1.13,2.23-1.3
			c0.9-0.17,1.88,0.08,2.94,0.76c2.46,1.46,5.07,2.52,7.81,3.19c2.74,0.67,5.63,1.01,8.65,1.01c4.42,0,7.64-0.74,9.66-2.23
			c2.02-1.48,3.02-3.4,3.02-5.75c0-1.96-0.71-3.5-2.14-4.62c-1.43-1.12-3.88-2.04-7.35-2.77l-9.24-1.93
			c-5.32-1.12-9.28-3.01-11.89-5.67c-2.6-2.66-3.91-6.17-3.91-10.54c0-2.74,0.56-5.24,1.68-7.48c1.12-2.24,2.7-4.17,4.75-5.8
			c2.04-1.62,4.48-2.87,7.31-3.74c2.83-0.87,5.95-1.3,9.37-1.3c3.36,0,6.55,0.42,9.58,1.26c3.02,0.84,5.74,2.07,8.15,3.7
			c0.89,0.62,1.5,1.37,1.81,2.27c0.31,0.9,0.38,1.78,0.21,2.65c-0.17,0.87-0.56,1.61-1.18,2.23c-0.62,0.62-1.39,0.98-2.31,1.09
			c-0.92,0.11-1.97-0.17-3.15-0.84c-2.07-1.18-4.17-2.02-6.3-2.52c-2.13-0.5-4.42-0.76-6.89-0.76c-2.58,0-4.79,0.37-6.64,1.09
			c-1.85,0.73-3.26,1.75-4.24,3.07c-0.98,1.32-1.47,2.87-1.47,4.66c0,2.02,0.67,3.63,2.02,4.83c1.34,1.21,3.64,2.14,6.89,2.81
			l9.16,1.93c5.54,1.18,9.67,3.02,12.39,5.54c2.72,2.52,4.07,5.88,4.07,10.08c0,2.69-0.55,5.12-1.64,7.31
			c-1.09,2.18-2.66,4.06-4.7,5.63c-2.04,1.57-4.49,2.77-7.35,3.61S410.58,704.02,406.99,704.02z"/>
		<path class="st2" d="M464.2,704.02c-4.09,0-7.69-0.53-10.79-1.6c-3.11-1.06-5.73-2.65-7.85-4.75c-2.13-2.1-3.72-4.72-4.79-7.85
			c-1.06-3.13-1.6-6.77-1.6-10.92v-30.16c0-1.85,0.46-3.22,1.39-4.12c0.92-0.9,2.25-1.34,3.99-1.34c1.74,0,3.07,0.45,3.99,1.34
			c0.92,0.9,1.39,2.27,1.39,4.12v30.07c0,5.32,1.22,9.31,3.65,11.97c2.44,2.66,5.98,3.99,10.63,3.99c4.65,0,8.18-1.33,10.58-3.99
			c2.41-2.66,3.61-6.65,3.61-11.97v-30.07c0-1.85,0.46-3.22,1.39-4.12c0.92-0.9,2.25-1.34,3.99-1.34c1.68,0,2.98,0.45,3.91,1.34
			c0.92,0.9,1.39,2.27,1.39,4.12v30.16c0,5.49-0.94,10.11-2.81,13.86c-1.88,3.75-4.66,6.57-8.36,8.44
			C474.19,703.09,469.63,704.02,464.2,704.02z"/>
		<path class="st2" d="M507.04,703.18c-1.74,0-3.08-0.49-4.03-1.47c-0.95-0.98-1.43-2.34-1.43-4.07v-48.47
			c0-1.79,0.46-3.15,1.39-4.07c0.92-0.92,2.25-1.39,3.99-1.39c1.74,0,3.07,0.46,3.99,1.39s1.39,2.28,1.39,4.07v44.86h24.36
			c1.51,0,2.67,0.39,3.49,1.18c0.81,0.79,1.22,1.91,1.22,3.36c0,1.46-0.41,2.59-1.22,3.4c-0.81,0.81-1.97,1.22-3.49,1.22H507.04z"/>
		<path class="st2" d="M568.44,703.86c-1.74,0-3.07-0.49-3.99-1.47c-0.92-0.98-1.39-2.34-1.39-4.07v-45.36h-16.38
			c-1.46,0-2.59-0.41-3.4-1.22c-0.81-0.81-1.22-1.92-1.22-3.32c0-1.46,0.41-2.56,1.22-3.32c0.81-0.76,1.95-1.13,3.4-1.13h43.51
			c1.46,0,2.59,0.38,3.4,1.13c0.81,0.76,1.22,1.86,1.22,3.32c0,1.4-0.41,2.51-1.22,3.32c-0.81,0.81-1.95,1.22-3.4,1.22h-16.38v45.36
			c0,1.74-0.45,3.09-1.34,4.07C571.58,703.36,570.23,703.86,568.44,703.86z"/>
		<path class="st2" d="M601.53,703.86c-1.34,0-2.42-0.31-3.23-0.92c-0.81-0.62-1.3-1.44-1.47-2.48c-0.17-1.04,0.03-2.2,0.59-3.49
			l22.18-49.14c0.73-1.62,1.61-2.79,2.65-3.49s2.23-1.05,3.57-1.05c1.29,0,2.45,0.35,3.49,1.05c1.04,0.7,1.92,1.86,2.65,3.49
			l22.26,49.14c0.62,1.29,0.84,2.46,0.67,3.53c-0.17,1.06-0.64,1.89-1.43,2.48s-1.82,0.88-3.11,0.88c-1.57,0-2.79-0.38-3.65-1.13
			c-0.87-0.76-1.64-1.92-2.31-3.49l-5.46-12.68l4.54,2.94H608l4.54-2.94l-5.38,12.68c-0.73,1.62-1.48,2.8-2.27,3.53
			C604.11,703.49,602.99,703.86,601.53,703.86z M625.64,655.64l-11.76,27.97l-2.18-2.69h28.06l-2.1,2.69l-11.84-27.97H625.64z"/>
		<path class="st2" d="M668.48,703.86c-1.62,0-2.87-0.45-3.74-1.34c-0.87-0.9-1.3-2.18-1.3-3.86v-49.98c0-1.74,0.43-3.07,1.3-3.99
			s2-1.39,3.4-1.39c1.29,0,2.25,0.24,2.9,0.71c0.64,0.48,1.41,1.27,2.31,2.39l32.17,41.75h-2.18v-39.73c0-1.62,0.43-2.88,1.3-3.78
			c0.87-0.9,2.11-1.34,3.74-1.34c1.62,0,2.86,0.45,3.7,1.34c0.84,0.9,1.26,2.16,1.26,3.78v50.4c0,1.57-0.39,2.8-1.18,3.7
			c-0.79,0.89-1.85,1.34-3.19,1.34c-1.29,0-2.31-0.25-3.07-0.76s-1.58-1.32-2.48-2.44l-32.09-41.75h2.1v39.73
			c0,1.68-0.42,2.97-1.26,3.86C671.34,703.41,670.1,703.86,668.48,703.86z"/>
		<path class="st2" d="M753.82,704.02c-6.16,0-11.44-1.25-15.83-3.74c-4.4-2.49-7.77-6.02-10.12-10.58
			c-2.35-4.56-3.53-9.95-3.53-16.17c0-4.65,0.67-8.83,2.02-12.56c1.34-3.72,3.28-6.92,5.8-9.58c2.52-2.66,5.61-4.7,9.28-6.13
			c3.67-1.43,7.8-2.14,12.39-2.14c3.08,0,6.1,0.39,9.07,1.18c2.97,0.78,5.57,1.9,7.81,3.36c1.18,0.73,1.96,1.61,2.35,2.65
			c0.39,1.04,0.48,2.04,0.25,3.02c-0.22,0.98-0.69,1.81-1.39,2.48c-0.7,0.67-1.57,1.05-2.6,1.13s-2.17-0.26-3.4-1.05
			c-1.74-1.12-3.61-1.93-5.63-2.44c-2.02-0.5-4.06-0.76-6.13-0.76c-3.98,0-7.34,0.81-10.08,2.44c-2.75,1.62-4.82,3.98-6.22,7.06
			c-1.4,3.08-2.1,6.86-2.1,11.34c0,4.42,0.7,8.21,2.1,11.34c1.4,3.14,3.47,5.52,6.22,7.14c2.74,1.62,6.1,2.44,10.08,2.44
			c2.13,0,4.23-0.26,6.3-0.8c2.07-0.53,4.03-1.36,5.88-2.48c1.23-0.73,2.34-1.05,3.32-0.97s1.81,0.43,2.48,1.05s1.12,1.39,1.34,2.31
			c0.22,0.92,0.17,1.88-0.17,2.86c-0.34,0.98-1.01,1.83-2.02,2.56c-2.24,1.62-4.91,2.87-8.02,3.74
			C760.17,703.59,757.02,704.02,753.82,704.02z"/>
		<path class="st2" d="M802.88,703.86c-1.74,0-3.07-0.49-3.99-1.47c-0.92-0.98-1.39-2.37-1.39-4.16v-25.54l2.27,6.47l-20.24-28.48
			c-0.73-1.01-1.05-2.09-0.97-3.23c0.08-1.15,0.55-2.13,1.39-2.94c0.84-0.81,2.02-1.22,3.53-1.22c1.12,0,2.14,0.28,3.07,0.84
			c0.92,0.56,1.81,1.43,2.65,2.6l15.04,21.34h-2.35l15.12-21.34c0.89-1.23,1.76-2.11,2.6-2.65s1.88-0.8,3.11-0.8
			c1.46,0,2.59,0.38,3.4,1.13c0.81,0.76,1.23,1.69,1.26,2.81c0.03,1.12-0.38,2.3-1.22,3.53l-20.08,28.39l2.18-6.47v25.54
			C808.25,701.98,806.46,703.86,802.88,703.86z"/>
		<path class="st2" d="M863.53,703.18c-1.74,0-3.08-0.49-4.03-1.47c-0.95-0.98-1.43-2.34-1.43-4.07v-48.47
			c0-1.79,0.46-3.15,1.39-4.07c0.92-0.92,2.25-1.39,3.99-1.39c1.74,0,3.07,0.46,3.99,1.39s1.39,2.28,1.39,4.07v44.86h24.36
			c1.51,0,2.67,0.39,3.49,1.18c0.81,0.79,1.22,1.91,1.22,3.36c0,1.46-0.41,2.59-1.22,3.4c-0.81,0.81-1.97,1.22-3.49,1.22H863.53z"/>
		<path class="st2" d="M910.73,703.18c-1.74,0-3.08-0.49-4.03-1.47c-0.95-0.98-1.43-2.34-1.43-4.07v-48.47
			c0-1.79,0.46-3.15,1.39-4.07c0.92-0.92,2.25-1.39,3.99-1.39c1.74,0,3.07,0.46,3.99,1.39s1.39,2.28,1.39,4.07v44.86h24.36
			c1.51,0,2.67,0.39,3.49,1.18c0.81,0.79,1.22,1.91,1.22,3.36c0,1.46-0.41,2.59-1.22,3.4c-0.81,0.81-1.97,1.22-3.49,1.22H910.73z"/>
		<path class="st2" d="M980.03,704.02c-6.16,0-11.44-1.25-15.83-3.74c-4.4-2.49-7.77-6.02-10.12-10.58
			c-2.35-4.56-3.53-9.95-3.53-16.17c0-4.65,0.67-8.83,2.02-12.56c1.34-3.72,3.28-6.92,5.8-9.58c2.52-2.66,5.61-4.7,9.28-6.13
			c3.67-1.43,7.8-2.14,12.39-2.14c3.08,0,6.1,0.39,9.07,1.18c2.97,0.78,5.57,1.9,7.81,3.36c1.18,0.73,1.96,1.61,2.35,2.65
			c0.39,1.04,0.48,2.04,0.25,3.02c-0.22,0.98-0.69,1.81-1.39,2.48c-0.7,0.67-1.57,1.05-2.6,1.13s-2.17-0.26-3.4-1.05
			c-1.74-1.12-3.61-1.93-5.63-2.44c-2.02-0.5-4.06-0.76-6.13-0.76c-3.98,0-7.34,0.81-10.08,2.44c-2.75,1.62-4.82,3.98-6.22,7.06
			c-1.4,3.08-2.1,6.86-2.1,11.34c0,4.42,0.7,8.21,2.1,11.34c1.4,3.14,3.47,5.52,6.22,7.14c2.74,1.62,6.1,2.44,10.08,2.44
			c2.13,0,4.23-0.26,6.3-0.8c2.07-0.53,4.03-1.36,5.88-2.48c1.23-0.73,2.34-1.05,3.32-0.97s1.81,0.43,2.48,1.05s1.12,1.39,1.34,2.31
			c0.22,0.92,0.17,1.88-0.17,2.86c-0.34,0.98-1.01,1.83-2.02,2.56c-2.24,1.62-4.91,2.87-8.02,3.74
			C986.38,703.59,983.23,704.02,980.03,704.02z"/>
	</g>
</g>
</svg>
